<?xml version="1.0" encoding="UTF-8"?>
<svg version="1.1" xmlns="http://www.w3.org/2000/svg" width="100" height="100">
<path d="M0 0 C1.1808786 3.5426358 1.16311093 6.76226342 1.17700195 10.44970703 C1.18357315 11.20622055 1.19014435 11.96273407 1.19691467 12.74217224 C1.21663291 15.24738672 1.22830938 17.75254116 1.23828125 20.2578125 C1.24235678 21.11540035 1.2464323 21.9729882 1.25063133 22.85656357 C1.27148969 27.39916492 1.28579021 31.94173612 1.29516602 36.484375 C1.30620644 41.16156296 1.3405794 45.83827203 1.38033772 50.51529121 C1.40657252 54.12371666 1.41486411 57.73202943 1.41844749 61.34054184 C1.42329881 63.06360977 1.43487104 64.78667316 1.45348549 66.50964737 C1.64787206 85.70122244 1.64787206 85.70122244 -4.78515625 93.03515625 C-8.04649993 94.45588269 -10.89437118 94.43398847 -14.4375 94.4375 C-16.38462891 94.46650391 -16.38462891 94.46650391 -18.37109375 94.49609375 C-22.52159206 93.92869517 -24.18358092 93.06712306 -27 90 C-28.29411998 85.57909324 -27.36143446 81.73677024 -25.375 77.6875 C-21.15774537 72.91534344 -17.37511825 70.67058597 -11.125 69.98046875 C-8.35338569 70.00594315 -5.72685339 70.52563339 -3 71 C-3.03029297 69.88778076 -3.06058594 68.77556152 -3.09179688 67.62963867 C-3.20618648 63.40444452 -3.31716717 59.17916589 -3.42724609 54.95385742 C-3.47485469 53.14361233 -3.52332309 51.33338961 -3.57275391 49.52319336 C-3.91361861 37.01206762 -4.06449096 24.51572539 -4 12 C-5.03294189 12.14332764 -6.06588379 12.28665527 -7.13012695 12.43432617 C-47.18487373 17.90756313 -47.18487373 17.90756313 -55 14 C-54.94465088 14.58265625 -54.88930176 15.1653125 -54.83227539 15.765625 C-48.92299579 78.33880835 -48.92299579 78.33880835 -58 89.3125 C-62.3632803 93.64169218 -66.00299419 94.36432917 -72 94.375 C-72.72445312 94.39949219 -73.44890625 94.42398438 -74.1953125 94.44921875 C-79.46077344 94.47836337 -79.46077344 94.47836337 -81.97265625 92.25 C-83.70039795 88.4660486 -83.637109 85.07041863 -83 81 C-80.29820537 75.6964772 -76.70503105 71.90167702 -71 70 C-68.60509014 69.93029948 -66.20832309 69.91551997 -63.8125 69.9375 C-61.90404297 69.95103516 -61.90404297 69.95103516 -59.95703125 69.96484375 C-58.98121094 69.97644531 -58.00539063 69.98804687 -57 70 C-56.43999446 47.31977547 -58.30476091 24.50811366 -61 2 C-57.48568884 0.94059003 -54.14777206 0.79918336 -50.48828125 0.68359375 C-49.18375 0.64161865 -47.87921875 0.59964355 -46.53515625 0.55639648 C-45.1276142 0.51640949 -43.72006183 0.47678463 -42.3125 0.4375 C-41.60512695 0.41632111 -40.89775391 0.39514221 -40.16894531 0.37332153 C-26.7786526 -0.02621654 -13.39599938 -0.11895355 0 0 Z M-56 5 C-57.24546405 7.49092811 -56.7767578 8.41080733 -56 11 C-44.46986411 11.23665045 -33.06591697 10.92403383 -21.5625 10.0625 C-19.81296021 9.93222412 -19.81296021 9.93222412 -18.02807617 9.79931641 C-13.2744236 9.42297543 -8.66566911 9.01515355 -4 8 C-4 6.68 -4 5.36 -4 4 C-21.36189647 3.86043492 -38.65628836 4.19351526 -56 5 Z " fill="#000000" transform="translate(89,6)"/>
</svg>
