<?xml version="1.0" encoding="UTF-8"?>
<svg version="1.1" xmlns="http://www.w3.org/2000/svg" width="100" height="100">
<path d="M0 0 C1.32 0 2.64 0 4 0 C4.07476562 0.68964844 4.14953125 1.37929688 4.2265625 2.08984375 C5.4953214 11.15773827 8.56862483 17.62676128 15.9375 23.25 C17.8986259 24.61605144 19.88764544 25.92687668 21.890625 27.23046875 C27.40767406 30.93648649 30.73079343 34.9780796 33.3125 41.125 C35.52041176 53.56959358 32.87529671 62.69685673 28 74 C26.68 74 25.36 74 24 74 C24.36377957 69.72559005 25.07072262 66.68260269 27.0625 62.875 C30.23528599 56.12414514 29.99943175 48.66458308 28.0625 41.5625 C23.49518074 35.88795182 17.32475792 33.02308003 10.68359375 30.31640625 C9.6155249 29.8788501 8.54745605 29.44129395 7.44702148 28.99047852 C6.63950439 28.66362061 5.8319873 28.3367627 5 28 C5.11908735 33.24711897 5.24338302 38.49408047 5.37231445 43.7409668 C5.41538116 45.52250902 5.45707346 47.30408507 5.49731445 49.08569336 C5.55570893 51.66009677 5.6191963 54.23433432 5.68359375 56.80859375 C5.70030624 57.59334579 5.71701874 58.37809784 5.73423767 59.18663025 C5.856559 63.84827418 6.20703751 68.42831853 6.77253723 73.05760193 C7.62187263 80.31042594 7.71412573 86.59633494 4 93 C0.27613048 97.29677253 -2.5254319 99.77043163 -8.2421875 100.30078125 C-9.44101562 100.30464844 -10.63984375 100.30851562 -11.875 100.3125 C-13.06867187 100.32925781 -14.26234375 100.34601563 -15.4921875 100.36328125 C-19.99287324 99.8971746 -23.17614577 98.32072203 -26.8125 95.6875 C-28.70300047 93.00099934 -29 91.30362439 -29 88 C-26.87557498 82.55549365 -23.3132393 78.68472509 -18.24609375 75.83984375 C-12.18811866 73.57468785 -5.85350905 74.53536461 0 77 C1.01213102 72.9796037 0.93337913 69.61783995 0.56640625 65.5 C-0.40821969 52.6930916 -0.10544252 39.83414293 -0.0625 27 C-0.05747437 24.37500085 -0.05291335 21.75000078 -0.04882812 19.125 C-0.03790812 12.74997935 -0.02125448 6.37499414 0 0 Z " fill="#000000" transform="translate(55,0)"/>
</svg>
