<?xml version="1.0" encoding="UTF-8"?>
<svg version="1.1" xmlns="http://www.w3.org/2000/svg" width="100" height="100">
<path d="M0 0 C1.32 0.33 2.64 0.66 4 1 C4.02505615 1.95551758 4.0501123 2.91103516 4.07592773 3.89550781 C4.76090254 29.95851079 4.76090254 29.95851079 6 56 C6.59167969 55.51789062 7.18335938 55.03578125 7.79296875 54.5390625 C8.58316406 53.90742187 9.37335937 53.27578125 10.1875 52.625 C10.96480469 51.99851563 11.74210937 51.37203125 12.54296875 50.7265625 C17.72923836 47.08215683 22.76062024 46.03202146 29 47 C32.03215675 49.19831364 32.81654398 50.44963194 34 54 C34.7727919 61.41880223 32.52510425 68.20303735 28.41015625 74.390625 C22.82365934 81.1463887 14.29006229 88.71155392 5.6640625 90.8125 C4.78492188 90.874375 3.90578125 90.93625 3 91 C1.40883615 89.40883615 1.78958805 87.70946551 1.70288086 85.50073242 C1.66292496 84.53470596 1.62296906 83.5686795 1.58180237 82.57337952 C1.54320602 81.51146896 1.50460968 80.44955841 1.46484375 79.35546875 C1.42177597 78.25428207 1.37870819 77.1530954 1.33433533 76.01853943 C1.19595566 72.40839254 1.06606253 68.79800902 0.9375 65.1875 C0.89264465 63.96947693 0.84778931 62.75145386 0.80157471 61.496521 C0.05298748 40.98969622 -0.26604383 20.51811861 0 0 Z M12.375 62.8125 C11.61960937 63.33457031 10.86421875 63.85664062 10.0859375 64.39453125 C9.39757812 64.92433594 8.70921875 65.45414062 8 66 C7.40832031 66.4228125 6.81664062 66.845625 6.20703125 67.28125 C4.27440153 70.03321465 4.95760528 72.4289212 5.3125 75.6875 C5.43238281 76.86699219 5.55226563 78.04648438 5.67578125 79.26171875 C5.78277344 80.16535156 5.88976563 81.06898437 6 82 C13.39778077 78.58058133 18.90734162 74.59979882 21.84375 66.7421875 C22.53676272 64.35443779 22.53676272 64.35443779 23 61 C21.9650234 59.75517481 21.9650234 59.75517481 19.7265625 59.76171875 C16.4938158 60.04423673 15.0081517 60.95300627 12.375 62.8125 Z " fill="#000000" transform="translate(39,4)"/>
</svg>
