<?xml version="1.0" encoding="UTF-8"?>
<svg version="1.1" xmlns="http://www.w3.org/2000/svg" width="100" height="100">
<path d="M0 0 C2.125 0.375 2.125 0.375 4 1 C5.06186024 16.32954582 6.06789196 31.66199251 7 47 C7.05236816 47.85376221 7.10473633 48.70752441 7.15869141 49.5871582 C7.45760224 54.51518808 7.71228377 59.44304971 7.9375 64.375 C8.00702881 65.55852051 8.07655762 66.74204102 8.14819336 67.96142578 C8.46664668 76.12803774 7.14637866 81.12847939 2 87.4609375 C1.34 88.09257813 0.68 88.72421875 0 89.375 C-0.99 90.34566406 -0.99 90.34566406 -2 91.3359375 C-6.26072163 94.88099104 -9.38574146 95.29472489 -14.9375 95.3125 C-16.14277344 95.32925781 -17.34804688 95.34601563 -18.58984375 95.36328125 C-22.28156781 94.9700048 -24.10711078 94.29257589 -27 92 C-29.51249546 88.3609579 -29.08552945 85.51469707 -28.45703125 81.30859375 C-27.57066635 76.83131464 -26.77831733 73.32515538 -22.9765625 70.4921875 C-17.50754534 67.31252636 -12.72564554 65.83929414 -6.375 65.9375 C-5.24191406 65.95103516 -5.24191406 65.95103516 -4.0859375 65.96484375 C-3.39757812 65.97644531 -2.70921875 65.98804687 -2 66 C-1.01 66 -0.02 66 1 66 C0.73552515 59.61767081 0.468726 53.23544157 0.20043945 46.85327148 C0.10975651 44.6898815 0.01957257 42.52647052 -0.07006836 40.36303711 C-0.20029024 37.2224345 -0.3323732 34.08191474 -0.46484375 30.94140625 C-0.50701019 29.91882721 -0.54917664 28.89624817 -0.59262085 27.84268188 C-0.79304745 23.13721295 -1.02315778 18.43954271 -1.35986328 13.74169922 C-1.41533829 12.94900131 -1.47081329 12.15630341 -1.52796936 11.33958435 C-1.63383191 9.88236579 -1.74868926 8.4257614 -1.87425232 6.97010803 C-1.994511 5.31724429 -2.00755993 3.6572156 -2 2 C-1.34 1.34 -0.68 0.68 0 0 Z M-20.5234375 79.6015625 C-21.76193623 81.3805068 -21.76193623 81.3805068 -23 84 C-22.34 85.32 -21.68 86.64 -21 88 C-13.23053234 89.06177107 -8.63519619 87.17709932 -2.15234375 82.921875 C0.08011261 81.18781843 0.08011261 81.18781843 0.93359375 78.953125 C1.20109047 76.67042803 1.20109047 76.67042803 -1 74 C-7.75500391 73.15562451 -15.63013206 74.45731832 -20.5234375 79.6015625 Z " fill="#000000" transform="translate(53,5)"/>
</svg>
