<?xml version="1.0" standalone="no"?>
<!DOCTYPE svg PUBLIC "-//W3C//DTD SVG 20010904//EN"
 "http://www.w3.org/TR/2001/REC-SVG-20010904/DTD/svg10.dtd">
<svg version="1.0" xmlns="http://www.w3.org/2000/svg"
 width="100.000000pt" height="100.000000pt" viewBox="0 0 100.000000 100.000000"
 preserveAspectRatio="xMidYMid meet">
<metadata>
Created by potrace 1.10, written by Peter Selinger 2001-2011
</metadata>
<g transform="translate(0.000000,100.000000) scale(0.100000,-0.100000)"
fill="#000000" stroke="none">
<path d="M592 860 c-82 -77 -156 -150 -165 -163 -29 -45 -47 -129 -47 -223 0
-102 -1 -104 -71 -104 -85 0 -200 -89 -215 -165 -15 -80 44 -166 122 -181 53
-10 134 12 177 47 21 17 49 53 62 80 24 46 25 58 25 213 l0 166 43 21 c23 12
71 49 108 83 36 33 100 92 143 130 97 86 112 107 96 138 -21 40 -83 98 -106
98 -14 0 -73 -48 -172 -140z m222 61 l38 -38 -54 -50 c-29 -28 -87 -80 -130
-117 -42 -37 -78 -72 -81 -79 -3 -7 -37 -29 -75 -48 l-71 -34 6 -160 c7 -181
0 -214 -50 -272 -39 -44 -82 -63 -142 -63 -60 0 -98 21 -120 65 -45 97 67 215
205 215 31 0 61 -5 68 -12 9 -9 12 17 12 117 0 194 8 213 145 340 166 154 189
174 200 175 6 0 28 -17 49 -39z"/>
<path d="M659 836 c-19 -17 -66 -59 -104 -94 l-69 -63 27 -27 27 -27 38 40
c20 22 65 65 99 95 l62 55 -23 26 -23 26 -34 -31z"/>
<path d="M239 290 c-39 -20 -89 -74 -89 -93 1 -14 30 22 30 36 0 5 9 7 20 4
13 -3 21 1 26 15 3 10 11 17 17 15 7 -2 20 2 30 11 15 14 17 13 17 -4 0 -16 2
-16 10 -4 5 8 23 15 40 16 28 2 31 -1 26 -20 -5 -19 -4 -20 8 -3 17 22 26 22
26 -2 0 -11 5 -23 10 -26 13 -8 13 31 0 56 -15 27 -120 26 -171 -1z"/>
<path d="M321 219 c-6 -13 -19 -46 -30 -74 -13 -35 -24 -50 -37 -51 -33 -1
-34 5 -13 62 12 31 19 58 16 60 -6 7 -56 -119 -50 -128 8 -15 78 -8 120 11 43
20 99 89 91 112 -2 7 -14 -4 -27 -24 -23 -37 -41 -48 -41 -24 -1 6 -7 -3 -15
-20 -8 -18 -19 -33 -25 -33 -14 0 -13 7 10 69 20 52 21 87 1 40z"/>
<path d="M196 165 c-7 -27 -26 -35 -26 -10 0 8 -4 15 -10 15 -5 0 -10 -5 -10
-11 0 -15 19 -49 28 -49 10 0 36 70 29 76 -2 3 -7 -7 -11 -21z"/>
</g>
</svg>
