<?xml version="1.0" encoding="UTF-8"?>
<svg version="1.1" xmlns="http://www.w3.org/2000/svg" width="100" height="100">
<path d="M0 0 C3.98618652 1.36669252 6.96438602 3.05111785 10 6 C10 7.32 10 8.64 10 10 C8.43403422 11.32237111 6.86018848 12.63605413 5.2578125 13.9140625 C0.68001804 18.14337434 -2.89916697 23.32551977 -6.671875 28.26660156 C-8.56739393 30.74053252 -10.49766115 33.18572502 -12.4375 35.625 C-13.03433594 36.38039062 -13.63117187 37.13578125 -14.24609375 37.9140625 C-14.82488281 38.60242187 -15.40367188 39.29078125 -16 40 C-16.52722656 40.64710937 -17.05445313 41.29421875 -17.59765625 41.9609375 C-21.29838798 45.10204639 -25.61979656 46.96036328 -30 49 C-29.97905273 49.74048584 -29.95810547 50.48097168 -29.93652344 51.24389648 C-29.85270101 54.64162282 -29.80113076 58.03913072 -29.75 61.4375 C-29.69972656 63.18450195 -29.69972656 63.18450195 -29.6484375 64.96679688 C-29.55398473 73.34948023 -30.51231689 79.67703144 -35.859375 86.3046875 C-41.75865178 91.20450003 -46.87979092 94.43985377 -54.75 93.9375 C-57.64597725 93.64061025 -58.88659013 93.08604875 -61.234375 91.3046875 C-64.49327226 87.05081718 -63.64301702 82.10394756 -63 77 C-61.40975937 71.49379181 -57.67357368 68.71097745 -52.90234375 65.9453125 C-49.29257386 64.15154594 -46.413627 63.86441111 -42.4375 63.875 C-41.46683594 63.87242188 -40.49617188 63.86984375 -39.49609375 63.8671875 C-37 64 -37 64 -35 65 C-35.10441406 63.04320313 -35.10441406 63.04320313 -35.2109375 61.046875 C-35.61321373 50.09741895 -35.35575043 42.30663455 -29 33 C-28.34 33 -27.68 33 -27 33 C-26.77054688 32.46117187 -26.54109375 31.92234375 -26.3046875 31.3671875 C-24.61100341 28.29421576 -22.41183577 25.76291844 -20.125 23.125 C-19.64683838 22.56707764 -19.16867676 22.00915527 -18.67602539 21.43432617 C-17.65468452 20.24334054 -16.63159993 19.05384843 -15.60693359 17.86572266 C-13.95740138 15.95054107 -12.31570417 14.02888259 -10.67578125 12.10546875 C-9.5965093 10.84101341 -8.51708613 9.57668711 -7.4375 8.3125 C-6.92525879 7.71260254 -6.41301758 7.11270508 -5.88525391 6.49462891 C-3.975987 4.26682975 -2.07552482 2.07552482 0 0 Z M-5 12 C-11.48734952 18.0642615 -16.70007906 24.91603343 -22 32 C-22.65097656 32.86367188 -23.30195312 33.72734375 -23.97265625 34.6171875 C-25.32024481 36.40760067 -26.66111191 38.20307125 -28 40 C-25.67875214 40.76918602 -25.67875214 40.76918602 -23 41 C-13.98402672 35.59041603 -6.7783357 22.66750355 -1 14 C-2.32 13.34 -3.64 12.68 -5 12 Z M-57.4375 74.875 C-59.06272827 78.12545654 -59.92268262 80.36608323 -60 84 C-59.17020292 86.91078244 -59.17020292 86.91078244 -57 89 C-52.79806213 90.40064596 -49.91428396 90.25984118 -45.9375 88.5 C-41.16865926 85.84652052 -37.44276925 81.8855385 -35 77 C-34.49989476 74.04230823 -34.49989476 74.04230823 -35 71 C-37.72331336 68.52426059 -39.67602083 68.0427897 -43.3125 67.5625 C-49.35674209 68.27961347 -53.48278321 70.21046225 -57.4375 74.875 Z " fill="#000000" transform="translate(76,3)"/>
</svg>
