<?xml version="1.0" encoding="UTF-8"?>
<svg version="1.1" xmlns="http://www.w3.org/2000/svg" width="100" height="100">
<path d="M0 0 C1.32 0.33 2.64 0.66 4 1 C4.06974839 8.81519331 4.12293663 16.63031263 4.15543652 24.44573975 C4.17104099 28.07542985 4.19218257 31.70490578 4.22631836 35.33447266 C4.25909979 38.84229617 4.27689219 42.34991468 4.28463173 45.85787964 C4.29280918 47.8363929 4.31619824 49.81482458 4.33988953 51.79321289 C4.34263201 66.56702659 4.34263201 66.56702659 -1.3125 72.375 C-6.66280645 75.61006901 -11.81333444 76.82406877 -18 76 C-23.625 73.75 -23.625 73.75 -25 71 C-25.24277001 65.81738807 -24.45326362 61.99448494 -21.0625 58 C-18.75657621 55.5524347 -17.25152723 54.09524897 -13.79296875 53.83203125 C-12.50326172 53.82236328 -12.50326172 53.82236328 -11.1875 53.8125 C-9.90939453 53.79123047 -9.90939453 53.79123047 -8.60546875 53.76953125 C-6 54 -6 54 -1 56 C-0.67 37.52 -0.34 19.04 0 0 Z " fill="#000000" transform="translate(57,9)"/>
</svg>
