<?xml version="1.0" encoding="UTF-8"?>
<svg version="1.1" xmlns="http://www.w3.org/2000/svg" width="100" height="100">
<path d="M0 0 C1.32 0 2.64 0 4 0 C5.41030314 6.73811499 4.66561666 13.19022959 4 20 C4.886875 19.505 5.77375 19.01 6.6875 18.5 C9.87586238 17.05621326 11.58187546 16.69840078 15 17 C15.0625 19.75 15.0625 19.75 14 23 C11.03 24.32 8.06 25.64 5 27 C5 34.26 5 41.52 5 49 C7.97 48.01 10.94 47.02 14 46 C15 49 15 49 13.9375 51.5 C11.60866966 54.50494237 9.49708304 55.58628558 6 57 C5.34 57 4.68 57 4 57 C4.10828125 58.34191406 4.10828125 58.34191406 4.21875 59.7109375 C5.73675497 79.48716887 5.73675497 79.48716887 4 86 C2.68 85.67 1.36 85.34 0 85 C0.01160156 83.94941406 0.02320313 82.89882812 0.03515625 81.81640625 C0.09119946 74.46073519 0.04277143 67.29940004 -1 60 C-1.84304687 60.433125 -2.68609375 60.86625 -3.5546875 61.3125 C-4.65039062 61.869375 -5.74609375 62.42625 -6.875 63 C-7.96554688 63.556875 -9.05609375 64.11375 -10.1796875 64.6875 C-13 66 -13 66 -15 66 C-15 75.9 -15 85.8 -15 96 C-16.32 95.67 -17.64 95.34 -19 95 C-19.33 86.75 -19.66 78.5 -20 70 C-22.31 70.99 -24.62 71.98 -27 73 C-29 71.6875 -29 71.6875 -31 70 C-31 69.01 -31 68.02 -31 67 C-29.37750059 66.16180842 -27.75191503 65.3295884 -26.125 64.5 C-25.22007813 64.0359375 -24.31515625 63.571875 -23.3828125 63.09375 C-21 62 -21 62 -19 62 C-19 54.08 -19 46.16 -19 38 C-21.97 38.99 -24.94 39.98 -28 41 C-29.32 41 -30.64 41 -32 41 C-32.33 39.35 -32.66 37.7 -33 36 C-31.04350603 35.16235732 -29.08474444 34.33000941 -27.125 33.5 C-26.03445312 33.0359375 -24.94390625 32.571875 -23.8203125 32.09375 C-21 31 -21 31 -19 31 C-19.33 23.08 -19.66 15.16 -20 7 C-18.68 7.33 -17.36 7.66 -16 8 C-15.34 14.6 -14.68 21.2 -14 28 C-12.06125 27.175 -10.1225 26.35 -8.125 25.5 C-2.25 23 -2.25 23 0 23 C0 15.41 0 7.82 0 0 Z M-8.625 32.5 C-10.72875 33.655 -12.8325 34.81 -15 36 C-15 43.59 -15 51.18 -15 59 C-13.081875 58.21625 -11.16375 57.4325 -9.1875 56.625 C-8.10855469 56.18414062 -7.02960937 55.74328125 -5.91796875 55.2890625 C-2.89269888 54.0520881 -2.89269888 54.0520881 0 52 C0.4164535 49.57900645 0.4164535 49.57900645 0.29296875 46.7734375 C0.2784668 45.2265625 0.2784668 45.2265625 0.26367188 43.6484375 C0.23853516 42.56820312 0.21339844 41.48796875 0.1875 40.375 C0.17396484 39.28703125 0.16042969 38.1990625 0.14648438 37.078125 C0.11104754 34.38492591 0.06164331 31.69270626 0 29 C-3.25520345 29 -5.83630573 30.95699961 -8.625 32.5 Z " fill="#000000" transform="translate(52,1)"/>
</svg>
